<svg width="1143" height="1146" viewBox="0 0 1143 1146" fill="none" xmlns="http://www.w3.org/2000/svg">
<g clip-path="url(#clip0_76_21773)">
<path d="M316.458 682.811C303.146 682.811 289.834 683.416 275.917 684.626C262.001 685.836 248.689 686.441 236.587 686.441C226.906 686.441 217.83 685.836 210.569 684.626C203.308 683.416 196.652 680.39 191.811 676.76C186.365 672.524 182.735 667.079 179.709 660.423C177.289 653.767 175.474 644.691 175.474 633.194C175.474 621.092 177.289 606.57 180.314 590.838C183.34 574.501 186.97 557.559 191.811 540.011C172.448 540.011 154.901 541.827 139.169 546.062C122.832 549.693 107.705 554.533 93.7877 558.769C79.8708 563.61 65.9539 567.845 53.2472 571.476C40.5405 575.106 27.8338 577.526 15.7321 577.526C10.2864 577.526 6.05082 575.711 3.63049 571.476C1.21016 566.03 0 561.189 0 555.743C0 547.877 2.42033 538.196 7.26098 527.305C12.1016 516.413 18.7575 504.917 26.6236 492.815C33.2795 475.873 39.3303 460.141 44.171 445.619C49.6167 431.097 54.4574 416.575 58.693 403.263C62.9285 389.346 67.1641 375.429 70.7946 362.117C74.4251 348.2 78.0556 333.678 81.6861 317.946C85.3166 302.214 88.9471 285.272 92.5776 267.724C96.208 249.572 100.444 229.604 104.679 206.611C106.494 201.77 110.125 197.535 116.176 193.904C121.621 190.274 128.882 187.854 136.749 185.433C144.615 183.013 153.691 181.198 162.767 180.593C172.448 179.382 181.525 178.777 190.601 178.777C198.467 178.777 205.728 179.382 212.384 179.988C219.04 180.593 225.091 181.803 230.536 183.013C235.377 184.223 239.612 186.038 242.638 187.854C245.663 189.669 247.479 192.089 247.479 193.904C243.848 217.503 239.007 241.101 232.957 264.699C226.906 288.297 219.04 311.895 210.569 335.494C202.097 359.092 192.416 383.295 182.13 408.103C171.843 432.912 160.952 457.72 149.455 483.134C160.952 483.739 171.238 484.344 179.104 484.344C186.97 484.344 194.231 484.344 200.887 484.344H206.938C212.989 464.376 219.04 445.013 225.696 425.651C231.746 406.893 237.797 388.741 242.638 372.404C244.453 364.538 248.084 357.277 252.924 351.831C257.765 346.385 263.816 341.544 270.472 337.914C277.128 334.283 283.783 331.863 290.439 330.048C297.095 328.233 303.751 327.628 309.197 327.628C323.719 327.628 333.4 330.048 338.846 334.283C343.687 339.124 346.712 345.175 346.712 353.041C346.712 357.882 345.502 364.538 343.687 373.009C341.871 381.48 338.846 390.556 335.821 401.448C332.19 411.734 328.56 423.231 324.324 435.937C320.088 448.039 315.853 460.746 311.617 474.057C327.349 471.637 340.661 469.217 353.368 466.796C365.47 464.376 376.361 463.166 384.832 463.166C389.068 463.166 391.488 464.981 393.303 468.007C395.119 471.637 395.724 475.873 395.724 481.318C395.724 494.63 394.514 505.522 392.093 513.388C390.278 521.254 387.253 527.305 384.227 532.145C381.202 536.381 378.176 539.406 375.151 541.222C372.125 542.432 369.705 543.037 368.495 543.037C356.998 543.037 344.292 543.037 331.585 542.432C318.878 541.827 305.566 541.221 291.65 540.616C289.229 550.298 286.809 559.979 284.994 569.66C283.178 579.342 281.968 587.813 281.363 596.284V605.36C281.363 610.806 283.783 617.462 288.019 624.118C292.255 631.379 297.095 638.035 302.541 645.296C307.987 651.952 312.827 658.607 317.063 664.658C321.299 670.709 323.719 674.945 323.719 678.575C323.719 680.39 323.114 680.995 322.509 682.206C321.904 682.206 320.088 682.811 316.458 682.811Z" fill="#49C1B3"/>
<path d="M1064.34 730.007C1051.03 730.007 1037.72 730.612 1023.8 731.822C1009.88 733.033 996.57 733.638 984.468 733.638C974.787 733.638 965.711 733.033 958.45 731.822C951.189 730.612 944.533 727.587 939.692 723.956C934.247 719.721 930.616 714.275 927.591 707.619C925.17 700.963 923.355 691.887 923.355 680.39C923.355 668.289 925.17 653.767 928.196 638.035C931.221 621.697 934.852 604.755 939.692 587.208C920.33 587.208 902.782 589.023 887.05 593.259C870.713 596.889 855.586 601.73 841.669 605.965C827.752 610.806 813.835 615.041 801.129 618.672C788.422 622.302 775.715 624.723 763.613 624.723C758.168 624.723 753.932 622.908 751.512 618.672C749.092 614.436 747.881 609.596 747.881 604.15C747.881 596.284 750.302 586.603 755.142 575.711C759.983 564.82 766.639 553.323 774.505 541.221C781.161 524.279 787.212 508.547 792.052 494.025C797.498 479.503 802.339 464.981 806.574 451.669C810.81 437.752 815.045 423.836 818.676 410.524C822.306 396.607 825.937 382.085 829.567 366.353C833.198 350.621 836.828 333.678 840.459 316.131C844.089 297.978 848.325 278.011 852.561 255.018C854.376 250.177 858.006 245.941 864.057 242.311C869.503 238.68 876.764 236.26 884.63 233.84C892.496 231.419 901.572 229.604 910.648 228.999C920.33 227.789 929.406 227.184 938.482 227.184C946.348 227.184 953.609 227.789 960.265 228.394C966.921 228.999 972.972 230.209 978.418 231.419C983.258 232.63 987.494 234.445 990.519 236.26C993.545 238.075 995.36 240.496 995.36 242.311C991.729 265.909 986.889 289.507 980.838 313.105C974.787 336.704 966.921 360.302 958.45 383.9C949.979 407.498 940.297 431.702 930.011 456.51C920.33 479.503 910.648 502.496 897.337 531.54C908.833 532.145 919.12 532.75 926.986 532.75C934.852 532.75 942.113 532.75 948.769 532.75H954.819C960.87 512.783 966.921 493.42 973.577 474.057C979.628 455.3 985.679 437.147 990.519 420.81C992.334 412.944 995.965 405.683 1000.81 400.237C1005.65 394.792 1011.7 389.951 1018.35 386.32C1025.01 382.69 1031.66 380.27 1038.32 378.454C1044.98 376.639 1051.63 376.034 1057.08 376.034C1071.6 376.034 1081.28 378.454 1086.73 382.69C1091.57 387.531 1094.59 393.581 1094.59 401.447C1094.59 406.288 1093.38 412.944 1091.57 421.415C1089.75 429.886 1086.73 438.963 1083.7 449.854C1080.07 460.14 1076.44 471.637 1072.21 484.344C1067.97 496.445 1063.73 509.152 1059.5 522.464C1075.23 520.044 1088.54 517.623 1101.25 515.203C1113.35 512.783 1124.24 511.572 1132.71 511.572C1136.95 511.572 1139.37 513.388 1141.18 516.413C1143 520.044 1143.61 524.279 1143.61 529.725C1143.61 543.037 1142.39 553.928 1139.97 561.794C1137.55 569.66 1135.13 576.316 1132.11 580.552C1129.08 584.787 1126.06 587.813 1123.03 589.628C1120.01 590.838 1117.59 591.443 1116.38 591.443C1104.88 591.443 1092.17 591.443 1079.47 590.838C1066.76 590.233 1053.45 589.628 1039.53 589.023C1037.11 598.704 1034.69 608.386 1032.87 618.067C1031.06 627.748 1029.85 636.219 1029.24 644.691V653.767C1029.24 659.212 1031.66 665.868 1035.9 672.524C1040.14 679.785 1044.98 686.441 1050.42 693.702C1055.87 700.358 1060.71 707.014 1064.94 713.065C1069.18 719.116 1071.6 723.351 1071.6 726.982C1071.6 728.797 1071 729.402 1070.39 730.612C1069.18 730.007 1067.36 730.007 1064.34 730.007Z" fill="#49C1B3"/>
<path d="M400.564 674.34C400.564 674.34 246.268 685.836 208.753 782.044C180.92 852.839 487.696 835.291 487.696 835.291C487.696 835.291 342.477 964.174 306.777 1029.52C306.777 1029.52 300.121 1067.64 316.458 1047.07C332.19 1026.5 364.259 982.326 364.259 982.326C320.088 1064.01 330.375 1124.52 338.846 1099.11C347.317 1073.69 385.437 1000.48 385.437 1000.48L386.042 1052.52C386.042 1052.52 384.832 1135.41 398.144 1047.07C411.456 958.728 541.549 861.915 565.147 843.157C588.14 824.4 609.318 796.566 582.089 807.458C554.86 818.349 314.038 799.592 314.038 799.592C314.038 799.592 431.424 804.432 497.983 789.305C497.983 788.095 426.583 779.019 400.564 674.34Z" fill="#35445A"/>
<path d="M268.657 1086.4C280.153 1099.11 299.516 1100.32 311.617 1088.82C324.324 1077.32 324.929 1057.36 314.038 1044.65C302.541 1031.94 283.178 1030.73 271.077 1042.23C258.37 1053.73 257.765 1073.09 268.657 1086.4Z" fill="#35445A"/>
<path d="M306.172 1134.81C317.668 1148.12 337.636 1149.33 350.948 1137.23C363.654 1125.13 364.865 1104.55 353.368 1091.24C341.872 1077.93 321.904 1076.72 308.592 1088.82C295.28 1100.92 294.07 1121.5 306.172 1134.81Z" fill="#35445A"/>
<path d="M383.622 1103.95C393.909 1115.44 410.851 1116.65 422.347 1105.76C433.844 1095.48 434.449 1077.32 424.163 1065.83C413.876 1054.33 396.934 1053.12 385.437 1064.01C374.546 1074.3 373.336 1092.45 383.622 1103.95Z" fill="#35445A"/>
<path d="M550.02 144.288C587.535 156.994 628.075 135.817 640.177 97.0913C652.279 58.366 631.706 17.2204 594.191 4.51372C556.676 -8.19301 516.135 12.9849 504.033 51.7101C491.327 90.4354 511.9 131.581 550.02 144.288ZM557.281 86.1998C560.911 75.3083 571.803 69.2575 582.694 72.888C592.981 76.5185 599.031 88.0151 595.401 98.9065C591.77 109.798 580.879 115.849 569.987 112.218C559.701 109.193 553.65 97.0913 557.281 86.1998Z" fill="#35445A"/>
<path d="M716.417 200.56C753.932 213.267 794.473 192.089 806.574 153.364C818.676 114.639 798.103 73.4931 760.588 60.7864C723.073 48.0797 682.533 69.2576 670.431 107.983C658.329 146.103 678.902 187.854 716.417 200.56ZM710.971 138.237C714.602 127.345 725.493 121.295 736.385 124.925C746.671 128.556 752.722 140.052 749.092 150.944C745.461 161.835 734.57 167.886 723.678 164.255C713.392 160.625 707.341 149.128 710.971 138.237Z" fill="#35445A"/>
<path d="M771.48 198.14C754.537 207.216 733.965 209.032 714.602 202.981C675.272 189.669 654.094 146.708 666.8 106.168C670.431 94.671 676.482 84.9897 683.743 76.5186L683.138 75.3084C673.456 55.9458 648.648 59.5763 645.623 60.1814C648.043 72.283 647.438 85.5948 643.202 97.6965C630.496 138.237 588.14 160.02 548.809 147.313C525.211 139.447 508.269 120.69 501.008 98.3015C438.685 99.5117 391.488 119.479 379.992 156.389C364.259 205.401 416.902 268.935 502.218 311.896C481.04 325.207 462.888 343.965 448.366 367.563C433.844 391.161 422.347 418.995 414.481 451.064C406.615 483.134 402.38 517.623 402.38 554.533C402.38 581.157 404.8 607.781 409.035 634.404C413.271 660.423 420.532 684.021 430.213 705.199C439.895 725.772 451.996 742.714 467.123 756.026C482.25 768.733 500.403 775.388 521.581 775.388C536.103 775.388 550.02 771.758 562.726 765.102C575.433 757.841 587.535 748.765 598.426 736.663C609.318 724.561 618.999 710.04 627.47 693.702C635.941 677.365 643.202 659.818 649.253 641.06C655.304 622.303 659.539 602.94 662.565 582.367C665.59 562.4 667.406 542.432 667.406 522.464C667.406 502.496 665.59 481.924 661.96 460.141C658.329 438.358 653.489 417.785 646.228 398.422L649.253 392.977L654.094 402.658C687.373 497.051 664.38 640.455 664.38 640.455L607.502 824.4C607.502 824.4 591.165 874.622 586.325 886.723C581.484 898.825 606.897 890.959 606.897 890.959L620.814 837.107C620.814 837.107 638.967 872.202 649.858 890.959C660.75 909.717 668.011 890.959 668.011 890.959L641.387 837.107C641.387 837.107 671.036 854.049 691.004 858.285C711.577 862.52 709.156 852.839 709.156 852.839L636.546 816.534C636.546 816.534 705.526 593.259 755.142 462.561C778.136 402.658 748.487 373.614 715.207 360.302C767.849 356.067 807.18 336.099 817.466 303.424C827.147 270.75 808.995 232.63 771.48 198.14ZM593.586 558.769C589.955 579.947 585.719 599.31 579.669 617.462C573.618 635.009 566.962 649.531 559.701 661.028C551.835 672.524 543.969 678.575 536.103 678.575C527.026 678.575 518.555 675.55 511.899 670.104C505.244 664.658 499.798 657.397 495.562 647.716C491.327 638.64 488.301 627.748 486.486 615.042C484.671 602.335 483.461 589.628 483.461 575.106C483.461 554.533 485.276 533.356 489.511 510.968C493.142 488.58 498.588 468.612 505.244 450.459C511.899 432.307 519.765 417.18 528.842 405.683C537.918 394.187 546.994 388.136 556.675 388.136C563.936 388.136 570.592 391.161 576.038 396.607C581.484 402.053 585.719 409.919 588.745 419.6C592.375 429.281 594.796 440.778 596.611 454.09C598.426 467.402 599.031 481.924 599.031 497.051C598.426 517.018 596.611 537.591 593.586 558.769ZM715.812 275.591C524.001 376.034 469.544 193.905 469.544 193.905L472.569 183.618C472.569 183.618 525.816 365.748 716.417 264.699L715.812 275.591Z" fill="#35445A"/>
<path d="M689.793 739.084C689.793 739.084 753.327 629.564 837.433 636.825C899.152 642.27 776.925 862.52 776.925 862.52C776.925 862.52 923.355 802.012 984.468 799.592C984.468 799.592 1014.72 808.668 994.15 812.904C973.577 817.139 929.406 825.005 929.406 825.005C1005.65 821.98 1046.19 851.629 1024.4 848.604C1002.62 845.578 935.457 847.393 935.457 847.393L973.577 866.756C973.577 866.756 1034.69 895.8 965.106 874.017C895.521 851.629 777.53 912.137 755.747 923.029C733.964 933.315 705.526 938.761 723.678 922.424C741.225 906.086 813.23 721.536 813.23 721.536C813.23 721.536 775.11 809.878 740.62 853.444C738.805 852.234 756.958 795.961 689.793 739.084Z" fill="#35445A"/>
<path d="M1039.53 791.726C1044.98 805.037 1038.93 819.559 1025.61 824.4C1012.91 829.241 997.78 823.19 992.335 809.878C986.889 796.566 992.94 782.044 1006.25 777.204C1018.96 772.363 1034.09 778.414 1039.53 791.726Z" fill="#35445A"/>
<path d="M1061.92 837.107C1067.36 850.419 1061.31 865.546 1048 870.992C1034.69 876.437 1018.96 869.176 1013.51 855.865C1008.07 842.553 1014.12 827.426 1027.43 821.98C1040.74 816.534 1056.47 823.19 1061.92 837.107Z" fill="#35445A"/>
<path d="M1011.7 882.488C1016.54 893.985 1011.09 907.296 999.595 911.532C988.099 915.768 974.787 910.322 969.341 898.825C964.501 887.329 969.946 874.017 981.443 869.781C993.545 865.546 1006.86 870.992 1011.7 882.488Z" fill="#35445A"/>
<path d="M734.836 867.073C734.931 855.043 723.9 845.203 710.199 845.095C696.498 844.987 685.314 854.652 685.219 866.682C685.124 878.713 696.155 888.553 709.856 888.661C723.557 888.769 734.741 879.103 734.836 867.073Z" fill="#35445A"/>
<path d="M679.169 908.393C679.27 896.362 668.245 886.517 654.543 886.402C640.842 886.287 629.654 895.947 629.553 907.977C629.452 920.008 640.477 929.853 654.179 929.968C667.88 930.083 679.069 920.423 679.169 908.393Z" fill="#35445A"/>
<path d="M607.502 898.22C607.502 910.322 596.611 920.003 582.694 920.003C569.382 920.003 558.491 910.322 558.491 898.22C558.491 886.118 569.382 876.437 583.299 876.437C596.611 876.437 607.502 886.723 607.502 898.22Z" fill="#35445A"/>
<path d="M497.378 331.258C476.805 313.711 448.366 305.845 421.742 349.411C363.049 443.198 257.765 592.654 257.765 592.654L208.753 557.559C208.753 557.559 202.097 560.584 212.384 572.686C222.67 585.393 243.848 598.099 243.848 598.099L202.097 603.545C202.097 603.545 193.626 616.857 208.753 616.252C223.88 615.647 251.714 612.621 251.714 612.621L225.696 646.506C225.696 646.506 230.536 667.684 235.982 659.213C241.428 650.136 265.026 616.252 265.026 616.252L356.998 495.84C356.998 495.84 427.793 411.734 496.167 392.371L503.428 391.161L501.008 395.397" fill="#35445A"/>
<path d="M186.97 544.852C180.314 550.298 178.499 562.399 183.945 571.476C188.785 580.552 198.467 584.182 205.728 578.737C212.384 573.291 214.199 561.189 208.753 552.113C203.307 542.432 193.626 539.406 186.97 544.852Z" fill="#35445A"/>
<path d="M183.945 601.73C177.289 607.176 175.474 619.277 180.919 628.353C185.76 637.43 195.441 641.06 202.702 635.614C209.358 630.169 211.174 618.067 205.728 608.991C200.282 599.309 190.601 596.284 183.945 601.73Z" fill="#35445A"/>
<path d="M215.409 647.111C208.753 652.557 206.938 664.658 212.384 673.735C217.224 683.416 226.906 686.441 234.167 680.996C240.823 675.55 242.638 663.448 237.192 654.372C232.352 644.691 222.67 641.665 215.409 647.111Z" fill="#35445A"/>
</g>
<defs>
<clipPath id="clip0_76_21773">
<rect width="1143" height="1144.82" fill="white" transform="translate(0 0.883301)"/>
</clipPath>
</defs>
</svg>
